<svg width="24" height="24" viewBox="0 0 24 24" fill="none" xmlns="http://www.w3.org/2000/svg">
<path fill-rule="evenodd" clip-rule="evenodd" d="M23.2124 11.3625L21.3333 9.82502V5.66668C21.3333 5.48335 21.1832 5.33335 20.9999 5.33335H19.6666C19.4832 5.33335 19.3333 5.48335 19.3333 5.66668V8.18752L13.0582 3.04585C12.4457 2.54168 11.5582 2.54168 10.9457 3.04585L0.787416 11.3625C0.645749 11.4792 0.624916 11.6875 0.741582 11.8333L1.58742 12.8667C1.70408 13.0083 1.91242 13.0292 2.05825 12.9125L2.67075 12.4125V20.6667C2.67075 21.0333 2.97075 21.3333 3.33742 21.3333H10.3374C10.5207 21.3333 10.6707 21.1833 10.6707 21V15.6667H13.3374V21C13.3374 21.1833 13.4874 21.3333 13.6707 21.3333H20.6707C21.0374 21.3333 21.3374 21.0333 21.3374 20.6667V12.4083L21.9499 12.9083C22.0916 13.025 22.3041 13.0042 22.4207 12.8625L23.2666 11.8292C23.3749 11.6875 23.3541 11.4792 23.2124 11.3625ZM19.3332 19.3334H15.3332V14C15.3332 13.8167 15.1832 13.6667 14.9999 13.6667H8.99992C8.81658 13.6667 8.66658 13.8167 8.66658 14V19.3334H4.66658V10.7708L11.7874 4.93752C11.9082 4.83752 12.0874 4.83752 12.2082 4.93752L19.3291 10.7708V19.3334H19.3332Z" fill="#5B5E65"/>
<mask id="mask0_261_1294" style="mask-type:alpha" maskUnits="userSpaceOnUse" x="0" y="2" width="24" height="20">
<path fill-rule="evenodd" clip-rule="evenodd" d="M23.2124 11.3625L21.3333 9.82502V5.66668C21.3333 5.48335 21.1832 5.33335 20.9999 5.33335H19.6666C19.4832 5.33335 19.3333 5.48335 19.3333 5.66668V8.18752L13.0582 3.04585C12.4457 2.54168 11.5582 2.54168 10.9457 3.04585L0.787416 11.3625C0.645749 11.4792 0.624916 11.6875 0.741582 11.8333L1.58742 12.8667C1.70408 13.0083 1.91242 13.0292 2.05825 12.9125L2.67075 12.4125V20.6667C2.67075 21.0333 2.97075 21.3333 3.33742 21.3333H10.3374C10.5207 21.3333 10.6707 21.1833 10.6707 21V15.6667H13.3374V21C13.3374 21.1833 13.4874 21.3333 13.6707 21.3333H20.6707C21.0374 21.3333 21.3374 21.0333 21.3374 20.6667V12.4083L21.9499 12.9083C22.0916 13.025 22.3041 13.0042 22.4207 12.8625L23.2666 11.8292C23.3749 11.6875 23.3541 11.4792 23.2124 11.3625ZM19.3333 19.3333H15.3332V14C15.3332 13.8167 15.1832 13.6667 14.9999 13.6667H8.99992C8.81658 13.6667 8.66658 13.8167 8.66658 14V19.3333H4.66658V10.7708L11.7874 4.93752C11.9082 4.83752 12.0874 4.83752 12.2082 4.93752L19.3291 10.7708V19.3333H19.3333Z" fill="white"/>
</mask>
<g mask="url(#mask0_261_1294)">
</g>
</svg>
